<svg height="512" viewBox="0 0 128 128" width="512" xmlns="http://www.w3.org/2000/svg"><g><path d="m24.192 18h79.615v48.048h-79.615z" fill="#b24f60"/><path d="m36.667 6.5h54.667v38.837h-54.667z" fill="#eaeaf0"/><path d="m85.333 28.583a1.749 1.749 0 0 1 -1.75-1.75v-10.25a1.75 1.75 0 0 1 3.5 0v10.25a1.749 1.749 0 0 1 -1.75 1.75z" fill="#bebec3"/><rect fill="#df6379" height="59.712" rx="6" width="115" x="6.5" y="44.096"/><path d="m40.333 57.846h-24.833a1.75 1.75 0 0 1 0-3.5h24.833a1.75 1.75 0 0 1 0 3.5z" fill="#eaeaf0"/><path d="m24.192 82.5h79.615v21.308h-79.615z" fill="#b24f60"/><path d="m36.667 82.5h54.667v39h-54.667z" fill="#eaeaf0"/><path d="m79 92.75h-30a1.75 1.75 0 0 1 0-3.5h30a1.75 1.75 0 0 1 0 3.5z" fill="#bebec3"/><path d="m79 101.75h-30a1.75 1.75 0 0 1 0-3.5h30a1.75 1.75 0 0 1 0 3.5z" fill="#bebec3"/><path d="m79 110.75h-30a1.75 1.75 0 0 1 0-3.5h30a1.75 1.75 0 0 1 0 3.5z" fill="#bebec3"/><g fill="#eaeaf0"><circle cx="109.5" cy="56.096" r="3"/><circle cx="97.625" cy="56.096" r="3"/><circle cx="85.75" cy="56.096" r="3"/></g></g></svg>